<?xml version="1.0" standalone="no"?>
<!DOCTYPE svg PUBLIC "-//W3C//DTD SVG 20010904//EN"
 "http://www.w3.org/TR/2001/REC-SVG-20010904/DTD/svg10.dtd">
<svg version="1.0" xmlns="http://www.w3.org/2000/svg"
 width="1024.000000pt" height="1024.000000pt" viewBox="0 0 1024.000000 1024.000000"
 preserveAspectRatio="xMidYMid meet">

<g transform="translate(0.000000,1024.000000) scale(0.100000,-0.100000)"
fill="#051c2c" stroke="none">
<path d="M0 5120 l0 -5120 5120 0 5120 0 0 5120 0 5120 -5120 0 -5120 0 0
-5120z m5225 3045 c33 -8 94 -31 135 -51 72 -35 100 -61 758 -721 l682 -685
-79 -85 c-176 -187 -253 -388 -254 -653 0 -199 52 -376 156 -532 139 -209 345
-355 577 -408 52 -12 102 -25 110 -29 13 -7 15 -109 12 -842 -1 -530 -6 -854
-13 -889 -28 -150 -101 -302 -200 -420 -106 -126 -294 -245 -464 -293 l-80
-22 -1450 -3 c-965 -2 -1476 1 -1529 8 -325 42 -608 284 -720 613 l-31 92 0
1380 c0 1542 -5 1417 70 1597 62 146 110 205 424 518 651 649 1200 1191 1276
1259 147 133 263 180 450 180 68 1 134 -5 170 -14z m2466 -87 c38 -142 123
-225 268 -263 25 -6 46 -16 48 -22 2 -5 -18 -16 -44 -23 -54 -15 -114 -43
-157 -74 -39 -28 -100 -123 -116 -180 -7 -25 -18 -46 -25 -46 -6 0 -24 30 -38
68 -47 118 -132 196 -247 225 -30 8 -55 20 -55 27 0 6 32 22 71 34 130 42 201
112 240 239 10 31 23 57 30 57 7 0 18 -19 25 -42z m-3777 -100 c-10 -13 -84
-90 -165 -173 -204 -209 -333 -345 -341 -358 -8 -13 -310 282 -305 297 5 16
196 114 287 147 160 58 378 105 499 108 l44 1 -19 -22z m2853 -84 c95 -38 195
-90 284 -147 52 -33 57 -40 63 -81 4 -24 21 -65 37 -90 17 -25 181 -192 365
-372 184 -180 334 -330 334 -335 0 -4 -26 3 -58 16 -69 28 -164 53 -237 63
l-53 7 -379 370 c-353 345 -500 488 -598 582 -90 85 -91 85 39 52 63 -16 155
-45 203 -65z m-4292 -121 c51 -167 123 -266 245 -337 60 -35 167 -76 200 -76
21 0 57 -26 48 -35 -3 -4 -37 -13 -75 -22 -89 -20 -197 -72 -255 -122 -77 -68
-139 -180 -172 -307 -6 -26 -17 -49 -23 -51 -6 -2 -24 37 -42 94 -36 118 -84
202 -151 265 -71 66 -135 94 -302 132 -49 11 -32 33 40 50 235 59 366 196 432
454 6 23 15 42 19 42 5 0 21 -39 36 -87z m40 -1516 c-68 -212 -66 -171 -63
-1682 l3 -1360 27 -98 c53 -192 138 -353 269 -511 189 -227 455 -380 746 -431
73 -13 300 -15 1573 -15 1638 0 1575 -2 1765 62 197 67 327 149 486 308 198
196 301 381 361 648 20 92 22 124 25 680 4 541 6 583 21 578 9 -2 42 -10 72
-16 30 -7 65 -18 77 -26 l22 -14 -1 -527 c-1 -291 -5 -643 -8 -783 -7 -235
-10 -262 -34 -345 -119 -400 -449 -679 -871 -734 -67 -9 -567 -11 -1975 -9
l-1885 3 -100 28 c-243 66 -478 233 -608 430 -51 77 -112 208 -131 283 -36
138 -37 231 -33 1954 4 1803 2 1725 48 1880 l13 41 118 -118 117 -118 -34
-108z m4758 89 c55 -20 106 -63 140 -117 l30 -49 31 52 c54 90 151 136 262
125 73 -7 137 -42 190 -101 56 -61 78 -131 72 -230 -6 -124 -27 -155 -254
-377 -109 -108 -220 -215 -246 -238 l-48 -43 -29 24 c-91 77 -443 415 -466
447 -129 187 -55 451 145 512 40 12 132 9 173 -5z"/>
<path d="M4975 7430 c-121 -22 -199 -64 -279 -150 -99 -107 -139 -211 -139
-360 0 -155 46 -266 154 -371 221 -217 595 -178 775 82 164 236 97 573 -146
729 -94 60 -251 90 -365 70z"/>
<path d="M3879 5419 c-46 -4 -75 -12 -99 -29 -36 -26 -69 -90 -70 -135 0 -50
40 -117 85 -142 l40 -23 1248 0 c1222 0 1249 0 1286 20 116 58 114 231 -3 293
l-41 22 -1190 0 c-654 0 -1220 -3 -1256 -6z"/>
<path d="M3825 4835 c-106 -38 -144 -170 -74 -259 47 -59 -35 -56 1331 -56
1201 0 1255 1 1288 19 64 34 96 105 80 178 -12 51 -39 84 -90 111 l-44 22
-1226 0 c-1029 -1 -1231 -3 -1265 -15z"/>
<path d="M3825 4255 c-49 -17 -101 -74 -109 -120 -8 -42 7 -104 34 -137 47
-61 -31 -58 1333 -58 1233 -1 1246 -1 1286 19 121 62 114 234 -13 292 -39 18
-95 19 -1266 18 -1026 0 -1232 -2 -1265 -14z"/>
<path d="M3823 3679 c-43 -12 -90 -62 -104 -109 -22 -73 12 -155 80 -190 40
-20 52 -20 1286 -20 1220 0 1247 0 1284 20 116 59 114 233 -3 289 -42 21 -48
21 -1277 20 -720 0 -1247 -5 -1266 -10z"/>
</g>
</svg>
